<svg version="1.1" xmlns="http://www.w3.org/2000/svg" xmlns:xlink="http://www.w3.org/1999/xlink" width="22px" height="18px" viewBox="0,0,256,209.45313">
    <g fill="none" fill-rule="evenodd" stroke="none" stroke-width="3" stroke-linecap="butt" stroke-linejoin="miter" stroke-miterlimit="10" stroke-dasharray="" stroke-dashoffset="0" font-family="none" font-weight="none" font-size="none" text-anchor="none" style="mix-blend-mode: normal">
        <g transform="translate(0,-0.00071) scale(11.63636,11.63636)">
            <g id="Icons">
                <g transform="translate(-339,-1307)" id="Rounded">
                    <g transform="translate(100,1162)" id="Communication">
                        <g transform="translate(238,142)" id="-Round-/-Communication-/-cancel_presentation">
                            <g><path d="M0,0h24v24h-24z" id="Path" fill="none"></path>
                            <path d="M21,3h-18c-1.1,0 -2,0.9 -2,2v14c0,1.1 0.9,2 2,2h18c1.1,0 2,-0.9 2,-2v-14c0,-1.1 -0.9,-2 -2,-2zM21,18c0,0.55 -0.45,1 -1,1h-16c-0.55,0 -1,-0.45 -1,-1v-12c0,-0.55 0.45,-1 1,-1h16c0.55,0 1,0.45 1,1zM15.29,8.7c-0.39,-0.39 -1.02,-0.39 -1.41,0l-1.88,1.89l-1.89,-1.89c-0.39,-0.39 -1.02,-0.39 -1.41,0c-0.39,0.39 -0.39,1.02 0,1.41l1.89,1.89l-1.89,1.89c-0.39,0.39 -0.39,1.02 0,1.41c0.39,0.39 1.02,0.39 1.41,0l1.89,-1.89l1.89,1.89c0.39,0.39 1.02,0.39 1.41,0c0.39,-0.39 0.39,-1.02 0,-1.41l-1.89,-1.89l1.89,-1.89c0.38,-0.38 0.38,-1.02 -0.01,-1.41z" id="🔹Icon-Color" fill="#808080"></path>
                        </g></g>
                    </g>
                </g>
            </g>
        </g>
    </g>
</svg>