<?xml version="1.0" standalone="no"?>
<!DOCTYPE svg PUBLIC "-//W3C//DTD SVG 20010904//EN"
 "http://www.w3.org/TR/2001/REC-SVG-20010904/DTD/svg10.dtd">
<svg version="1.0" xmlns="http://www.w3.org/2000/svg"
 width="140.000000pt" height="140.000000pt" viewBox="0 0 140.000000 140.000000"
 preserveAspectRatio="xMidYMid meet">

<g transform="translate(0.000000,140.000000) scale(0.100000,-0.100000)"
fill="#808080" stroke="none">
<path d="M560 1334 c-123 -14 -255 -80 -340 -171 -104 -110 -154 -238 -153
-388 1 -245 167 -462 404 -528 143 -40 265 -27 407 44 l83 42 138 -136 c90
-89 145 -137 159 -137 28 0 70 39 78 73 6 26 -5 40 -131 167 l-138 139 36 68
c94 180 96 357 5 537 -60 118 -202 233 -337 271 -52 15 -159 24 -211 19z m223
-186 c79 -37 160 -116 200 -197 30 -61 32 -72 32 -171 0 -93 -3 -111 -27 -163
-38 -80 -117 -161 -197 -200 -62 -30 -73 -32 -171 -32 -98 0 -109 2 -171 32
-80 39 -159 120 -197 200 -24 52 -27 70 -27 163 0 93 3 112 27 162 47 101 147
190 251 224 70 23 210 14 280 -18z"/>
</g>
</svg>
